<svg xmlns="http://www.w3.org/2000/svg" width="115.70132675930077" height="20" role="img" aria-label="Smithery Calls: ▲ 4.16k">
  <title>Smithery Calls: ▲ 4.16k</title>
  <linearGradient id="s" x2="0" y2="100%">
    <stop offset="0" stop-color="#bbb" stop-opacity=".1"/>
    <stop offset="1" stop-opacity=".1"/>
  </linearGradient>
  <clipPath id="r">
    <rect width="115.70132675930077" height="20" rx="3" fill="#fff"/>
  </clipPath>
  <g clip-path="url(#r)">
    <rect width="58.20132675930076" height="20" fill="#FF5601"/>
    <rect x="58.20132675930076" width="57.5" height="20" fill="#555"/>
    <rect width="115.70132675930077" height="20" fill="url(#s)"/>
  </g>
  <g fill="#fff" transform="translate(6, 4) scale(0.1344688480502017)">
    <path d="M17.7063 32.8984H0V42.5726C0 50.1758 6.16837 56.3442 13.7716 56.3442H23.4457V38.6378C23.4457 35.4723 20.8719 32.8984 17.7063 32.8984Z"/>
<path d="M28.0608 38.6378V56.3442H45.7671C48.9327 56.3442 51.5065 53.7703 51.5065 50.6048V32.8984H33.8002C30.6346 32.8984 28.0608 35.4723 28.0608 38.6378Z"/>
<path d="M65.8106 32.8984H56.1365V50.6048C56.1365 53.7703 58.7103 56.3442 61.8759 56.3442H79.5822V45.0725C79.5822 37.4693 73.4138 32.9132 65.8106 32.9132V32.8984Z"/>
<path d="M0 19.511V28.2828H17.7063C20.8719 28.2828 23.4457 25.7089 23.4457 22.5434V0C10.9759 0.0887 0.0148 6.2275 0 19.511Z"/>
<path d="M28.0608 22.5434C28.0608 25.7089 30.6346 28.2828 33.8002 28.2828H51.5065V4.8666C42.853 3.5501 38.3414 0.7396 28.0608 0.1035V22.5286V22.5434Z"/>
<path d="M61.1806 5.5469C59.3464 5.5469 57.6749 5.4877 56.1365 5.3842V28.2826H65.8106C73.4138 28.2826 79.5822 22.1142 79.5822 14.511V0.0737C75.2776 3.4464 69.1684 5.5469 61.1806 5.5469Z"/>
<path d="M0 74.7304V89.1677C4.30455 85.795 10.4137 83.6945 18.4016 83.6945C20.2358 83.6945 21.9073 83.7537 23.4457 83.872V60.9736H13.7716C6.16837 60.9736 0 67.142 0 74.7452L0 74.7304Z"/>
<path d="M45.7671 60.9736H28.0608V84.375C36.7143 85.6915 41.2259 88.502 51.5065 89.1381V66.713C51.5065 63.5475 48.9327 60.9736 45.7671 60.9736Z"/>
<path d="M56.1365 66.6984V89.2418C68.5915 89.153 79.5378 83.0142 79.5822 69.7604V60.959H61.8759C58.7103 60.959 56.1365 63.5328 56.1365 66.6984Z"/>
  </g>
  <g fill="#fff" font-family="Verdana,Geneva,DejaVu Sans,sans-serif" font-size="11">
    <text x="19.701326759300763" y="13.85" text-anchor="start">Calls</text>
    <text x="86.95132675930077" y="13.85" text-anchor="middle">▲ 4.16k</text>
  </g>
</svg>